<svg xmlns="http://www.w3.org/2000/svg" viewBox="0 0 667.50067 769.91489" width="150" height="150">
  <defs>
    <style>
      .cls-1 {
        fill: #f7f8f8;
      }

      .cls-12, .cls-2 {
        fill: #f7ec13;
      }

      .cls-10, .cls-13, .cls-3, .cls-5, .cls-7, .cls-8, .cls-9 {
        fill: none;
      }

      .cls-4 {
        fill: #2b2626;
        opacity: 0.11;
      }

      .cls-10, .cls-11, .cls-12, .cls-14, .cls-15, .cls-16, .cls-5, .cls-7, .cls-8, .cls-9 {
        stroke: #231f20;
      }

      .cls-10, .cls-11, .cls-12, .cls-13, .cls-14, .cls-15, .cls-16, .cls-5, .cls-7, .cls-8, .cls-9 {
        stroke-miterlimit: 10;
      }

      .cls-5 {
        stroke-width: 4px;
      }

      .cls-11, .cls-6 {
        fill: #231f20;
      }

      .cls-7 {
        stroke-width: 3px;
      }

      .cls-13, .cls-14, .cls-15, .cls-16, .cls-9 {
        stroke-width: 2px;
      }

      .cls-10 {
        stroke-width: 5px;
      }

      .cls-13 {
        stroke: #000;
        stroke-linecap: square;
      }

      .cls-14 {
        font-size: 36.19897px;
        font-family: TimesNewRomanPSMT, Times New Roman;
      }

      .cls-15 {
        font-size: 50.69738px;
      }

      .cls-15, .cls-16 {
        font-family: SymbolMT, Symbol;
      }

      .cls-16 {
        font-size: 34.28384px;
      }
    </style>
  </defs>
  <title>angelBigge</title>
  <g id="Layer_14" data-name="Layer 14" width="150" height="150">
    <polygon class="cls-1" points="333.909 0 0.019 192.208 0 573.009 333.676 769.915 667.389 572.487 667.501 192.208 333.909 0"/>
  </g>
  <g id="Layer_12" data-name="Layer 12" width="150" height="150" >
    <polygon class="cls-2" points="330.774 55.42 44.952 219.957 44.937 545.936 330.575 714.495 616.245 545.489 616.341 219.957 330.774 55.42" />
  </g>
  <g id="Layer_13" data-name="Layer 13" >
    <path class="cls-3" d="M620.58618,547.44367" transform="translate(-0.03263 -0.1671)"/>
    <path class="cls-4" d="M305.11007,404.74522c.68116-3.004-1.822-7.55558-.79775-10.45091.45971-1.29956.933-2.60723,1.26892-3.9458.29657-1.18194.30041-.03979.094-1.62823a5.78611,5.78611,0,0,1,.77027-3.63373L40.118,220.50751l2.17023,326.68085L302.5434,413.887C307.13555,413.535,304.29971,408.319,305.11007,404.74522Z" transform="translate(-0.03263 -0.1671)"/>
    <path class="cls-4" d="M346.95038,391.19928a12.46906,12.46906,0,0,1,.54669,2.37207,49.86525,49.86525,0,0,1,.07513,14.036l273.014,139.83637,2.17017-326.68085Z" transform="translate(-0.03263 -0.1671)"/>
  </g>
  <g id="Layer_22" data-name="Layer 22" >
    <polyline class="cls-2" points="357.24 389.803 347.697 393.936 346.644 398.66 354.272 401.149 357.559 399.681"/>
    <polygon class="cls-2" points="354.639 373.351 355.692 384.266 344.585 384.649 344.011 374.021 354.639 373.351"/>
  </g>
  <g id="Layer_9" data-name="Layer 9" width="150" height="150">
    <g>
      <line class="cls-5" x1="332.76052" y1="284.7535" x2="410.58132" y2="217.03814"/>
      <polygon class="cls-6" points="411.373 223.744 423.413 205.872 404.05 215.327 411.373 223.744"/>
    </g>
    <g>
      <line class="cls-7" x1="331.96536" y1="285.46322" x2="331.96536" y2="156.64554" />
      <polygon class="cls-6" points="340.941 159.272 331.965 143.728 322.99 159.272 340.941 159.272"/>
    </g>
    <path class="cls-8" d="M331.187,270.82339" transform="translate(-0.03263 -0.1671)"/>
    <path class="cls-9" d="M331.998,261.17846s15.50642-3.36346,12.19308,13.77418" transform="translate(-0.03263 -0.1671)"/>
  </g>
  <g id="Layer_3" data-name="Layer 3" >
    <path class="cls-8" d="M282.11371,284.81422" transform="translate(-0.03263 -0.1671)"/>
    <path class="cls-8" d="M306.0214,263.10044" transform="translate(-0.03263 -0.1671)"/>
    <path class="cls-8" d="M300.15153,288.94552" transform="translate(-0.03263 -0.1671)"/>
    <path class="cls-8" d="M303.37073,261.97929" transform="translate(-0.03263 -0.1671)"/>
    <path class="cls-8" d="M330.6726,264.86067" transform="translate(-0.03263 -0.1671)"/>
  </g>
  <g id="Layer_7" data-name="Layer 7" >
    <ellipse class="cls-10" cx="331.41311" cy="198.57376" rx="95.18115" ry="19.70028"/>
    <polygon class="cls-6" points="275.642 224.119 294.434 217.443 279.258 204.504 275.642 224.119"/>
  </g>
  <g id="Layer_5" data-name="Layer 5" >
    <path class="cls-11" d="M276.43686,465.91984c-2.16266,16.31092-20.78412,48.27677-23.61808,52.04229a12.25578,12.25578,0,0,0-.7393,1.10189c-1.20633,2.02411-5.81412,9.10333-11.16921,8.95008-3.56194-.10194-7.6959-3.49566-11.89607-13.902-.15523-.38459-.99247-.35276-.96938.04887.63728,11.08024-14.74127,54.54676-17.86633,1.99667-.0225-.37838-.77588-.38558-.83568-.00951-1.63483,10.28136-8.61,42.59833-31.047,36.25759-.6523-.18434-.99968-.73022-.754-1.22184,1.18486-2.37107,4.22384-9.89974,4.1546-24.64182-.00181-.38394-.69876-.497-.89151-.14162-3.69973,6.82061-18.79532,31.97924-36.924,25.29769a1.09045,1.09045,0,0,1-.80626-1.0499,15.01612,15.01612,0,0,1,1.3148-4.23624c.7542-1.50139,36.44487-49.02543,41.17927-101.83236s16.57573-84.3332,39.13376-87.43949,53.0828,53.71367,53.0828,53.71367" transform="translate(-0.03263 -0.1671)"/>
    <path class="cls-11" d="M386.21641,465.91984c2.16266,16.31092,20.78412,48.27677,23.61808,52.04229a12.25578,12.25578,0,0,1,.7393,1.10189c1.20633,2.02411,5.81412,9.10333,11.1692,8.95008,3.56195-.10194,7.69591-3.49566,11.89608-13.902.15523-.38459.99247-.35276.96938.04887-.63728,11.08024,14.74127,54.54676,17.86633,1.99667.0225-.37838.77588-.38558.83568-.00951,1.63482,10.28136,8.61,42.59833,31.047,36.25759.6523-.18434.99967-.73022.754-1.22184-1.18486-2.37107-4.22384-9.89974-4.1546-24.64182.00181-.38394.69875-.497.89151-.14162,3.69973,6.82061,18.79532,31.97924,36.924,25.29769a1.09045,1.09045,0,0,0,.80626-1.0499,15.01612,15.01612,0,0,0-1.3148-4.23624c-.75421-1.50139-36.44487-49.02543-41.17927-101.83236s-16.57573-84.3332-39.13376-87.43949S384.868,410.8538,384.868,410.8538" transform="translate(-0.03263 -0.1671)"/>
    <path class="cls-8" d="M421.813,511.0512" transform="translate(-0.03263 -0.1671)"/>
    <path class="cls-8" d="M385.87761,414.09464" transform="translate(-0.03263 -0.1671)"/>
    <path class="cls-8" d="M356.42213,398.98825" transform="translate(-0.03263 -0.1671)"/>
    <path class="cls-8" d="M275.88,414.09464" transform="translate(-0.03263 -0.1671)"/>
    <path class="cls-8" d="M239.94457,511.0512" transform="translate(-0.03263 -0.1671)"/>
    <path class="cls-8" d="M305.33548,398.98825" transform="translate(-0.03263 -0.1671)"/>
    <line class="cls-8" x1="305.30285" y1="390.29293" x2="305.30285" y2="398.82115"/>
    <path class="cls-8" d="M330.63681,396.70019" transform="translate(-0.03263 -0.1671)"/>
    <path class="cls-8" d="M312.28844,314.4818" transform="translate(-0.03263 -0.1671)"/>
    <path class="cls-8" d="M278.09014,344.43881" transform="translate(-0.03263 -0.1671)"/>
    <path class="cls-11" d="M278.97829,332.81914a52.84876,52.84876,0,0,1,104.12,17.51628c.05456.646-4.14973,1.67679-8.17748-2.10052a81.34,81.34,0,0,1-11.23905-13.62435c-4.91214-7.69061-3.63816-5.40218-15.16467-7.02019-10.00223-1.404-17.10058-17.83647-17.10058-17.83647l-.242-.56019-.242.56019s-7.09836,16.43244-17.10059,17.83647-11.77681,1.71605-15.16466,7.02019-7.09836,11.85631-10.97019,14.82039-9.1956.78-9.1956.78l-.3568-.14638a53.2191,53.2191,0,0,1,.22587-13.90848Q278.6217,334.46967,278.97829,332.81914Z" transform="translate(-0.03263 -0.1671)"/>
    <path class="cls-5" d="M313.29424,345.64145s-8.28142,8.63223-17.20814,0" transform="translate(-0.03263 -0.1671)"/>
    <path class="cls-5" d="M364.48844,345.64145s-8.28142,8.63223-17.20814,0" transform="translate(-0.03263 -0.1671)"/>
    <path class="cls-5" d="M322.54361,368.53939s8.147,10.75128,15.326,0" transform="translate(-0.03263 -0.1671)"/>
    <path class="cls-8" d="M404.04851,551.14425" transform="translate(-0.03263 -0.1671)"/>
    <path class="cls-8" d="M240.805,515.88733" transform="translate(-0.03263 -0.1671)"/>
    <path class="cls-8" d="M266.40207,535.43984" transform="translate(-0.03263 -0.1671)"/>
    <path class="cls-8" d="M348.74888,444.65716" transform="translate(-0.03263 -0.1671)"/>
    <path class="cls-8" d="M273.15527,494.10956" transform="translate(-0.03263 -0.1671)"/>
    <path class="cls-8" d="M295.706,495.71079" transform="translate(-0.03263 -0.1671)"/>
    <path class="cls-8" d="M316.22231,477.43526v1.31979s-3.134,15.47093-23.95175,17.04328a17.41646,17.41646,0,0,1-7.83508-1.0591" transform="translate(-0.03263 -0.1671)"/>
    <path class="cls-8" d="M357.59653,398.98825" transform="translate(-0.03263 -0.1671)"/>
    <line class="cls-8" x1="357.5639" y1="389.2789" x2="357.5639" y2="398.82115"/>
    <path class="cls-8" d="M379.47583,494.32372c20.27854-9.64588,12.275-61.42746,12.275-61.42746-3.926-39.31686-34.15423-33.90731-34.15423-33.90731-4.39773,5.548-22.21624,6.493-26.13374,6.63152-3.90913-.13848-21.72764-1.0835-26.12537-6.63152,0,0-19.495-3.48689-29.20882,15.49533a51.5456,51.5456,0,0,0-4.94536,18.412s-8.25636,53.411,13.25222,61.843c-3.589,11.536-34.25533,110.35767-33.37912,116.70407.93514,6.73749,16.13349,26.50183,46.9936,14.71327,0,0,17.17821,8.62756,32.83153,1.26275,15.64489,7.36481,32.823-1.26275,32.823-1.26275,30.8601,11.78856,46.0585-7.97578,46.99365-14.71327C411.57436,605.06427,382.55091,504.8984,379.47583,494.32372Zm-48.409-24.04382c-6.73985,9.60583-14.84452,7.1955-14.84452,7.1955V461.41847c3.38679.77984,3.30251-3.424,3.30251-3.424s.059-8.78346,0-13.3985a16.57509,16.57509,0,0,1,1.70183-7.713c3.46259-7.25928,9.916-8.032,9.916-8.032Zm15.64489,7.1955s-8.10467,2.41033-14.84452-7.1955l-.07579-41.429s6.45338.77274,9.916,8.032a16.51285,16.51285,0,0,1,1.69339,7.713c-.05054,4.615,0,13.3985,0,13.3985s-.08422,4.20386,3.31095,3.424Z" transform="translate(-0.03263 -0.1671)"/>
    <path class="cls-8" d="M346.71172,477.43526v1.31979s3.134,15.47093,23.95175,17.04328a17.16847,17.16847,0,0,0,8.81236-1.47459" transform="translate(-0.03263 -0.1671)"/>
    <path class="cls-11" d="M379.47583,494.32372c20.27854-9.64588,12.275-61.42746,12.275-61.42746-3.926-39.31686-34.15423-33.90731-34.15423-33.90731-4.39773,5.548-22.21624,6.493-26.13374,6.63152-3.90913-.13848-21.72764-1.0835-26.12537-6.63152,0,0-19.495-3.48689-29.20882,15.49533a51.5456,51.5456,0,0,0-4.94536,18.412s-8.25636,53.411,13.25222,61.843c-3.589,11.536-34.25533,110.35767-33.37912,116.70407.93514,6.73749,16.13349,26.50183,46.9936,14.71327,0,0,17.17821,8.62756,32.83153,1.26275,15.64489,7.36481,32.823-1.26275,32.823-1.26275,30.8601,11.78856,46.0585-7.97578,46.99365-14.71327C411.57436,605.06427,382.55091,504.8984,379.47583,494.32372Zm-48.409-24.04382c-6.73985,9.60583-14.84452,7.1955-14.84452,7.1955V461.41847c3.38679.77984,3.30251-3.424,3.30251-3.424s.059-8.78346,0-13.3985a16.57509,16.57509,0,0,1,1.70183-7.713c3.46259-7.25928,9.916-8.032,9.916-8.032Zm15.64489,7.1955s-8.10467,2.41033-14.84452-7.1955l-.07579-41.429s6.45338.77274,9.916,8.032a16.51285,16.51285,0,0,1,1.69339,7.713c-.05054,4.615,0,13.3985,0,13.3985s-.08422,4.20386,3.31095,3.424Z" transform="translate(-0.03263 -0.1671)"/>
    <path class="cls-6" d="M277.649,347.16336a1.0006,1.0006,0,0,0,0-2,1.0006,1.0006,0,0,0,0,2Z" transform="translate(-0.03263 -0.1671)"/>
    <path class="cls-6" d="M385.89487,342.89207a1.0006,1.0006,0,0,0,0-2,1.0006,1.0006,0,0,0,0,2Z" transform="translate(-0.03263 -0.1671)"/>
    <path class="cls-12" d="M330.63679,396.7002a52.812,52.812,0,0,0,52.45846-46.33927" transform="translate(-0.03263 -0.1671)"/>
    <path class="cls-12" d="M278.17679,350.34769a52.81187,52.81187,0,0,0,52.46005,46.35251" transform="translate(-0.03263 -0.1671)"/>
    <path class="cls-6" d="M381.7596,341.741a1.25075,1.25075,0,0,0,0-2.5,1.25075,1.25075,0,0,0,0,2.5Z" transform="translate(-0.03263 -0.1671)"/>
    <g>
      <path class="cls-6" d="M386.61578,340.02249c2.09739,1.51926,3.06738,4.06773,3.774,6.508,1.7534,6.05543,2.52483,12.61416.46067,18.57728a25.01185,25.01185,0,0,1-2.98935,5.8315,13.83,13.83,0,0,1-2.10732,2.53305,15.52821,15.52821,0,0,1-4.07735,2.46691,19.89925,19.89925,0,0,1-9.23776,2.19351" transform="translate(-0.03263 -0.1671)"/>
      <path class="cls-6" d="M385.7319,340.90637c5.30067,4.8124,6.038,15.723,4.40721,22.22883a17.87246,17.87246,0,0,1-17.70047,13.74752,1.25075,1.25075,0,0,0,0,2.5,20.15567,20.15567,0,0,0,19.61713-13.94267c2.6268-7.69849,1.79254-20.53761-4.55611-26.30145-1.18887-1.07936-2.962.6835-1.76776,1.76777Z" transform="translate(-0.03263 -0.1671)"/>
    </g>
    <g>
      <path class="cls-6" d="M275.13887,340.02249c-2.09739,1.51926-3.06738,4.06773-3.774,6.508-1.75339,6.05543-2.52482,12.61416-.46066,18.57728a25.01219,25.01219,0,0,0,2.98934,5.8315,13.83,13.83,0,0,0,2.10733,2.53305,15.52805,15.52805,0,0,0,4.07735,2.46691,19.89922,19.89922,0,0,0,9.23776,2.19351" transform="translate(-0.03263 -0.1671)"/>
      <path class="cls-6" d="M274.255,339.1386c-6.35563,5.77018-7.16432,18.59434-4.5561,26.30145A20.13875,20.13875,0,0,0,289.316,379.38272a1.25075,1.25075,0,0,0,0-2.5,17.93077,17.93077,0,0,1-17.70048-13.74752c-1.733-6.40709-.79511-17.50572,4.40722-22.22883,1.19377-1.0838-.57839-2.84759-1.76777-1.76777Z" transform="translate(-0.03263 -0.1671)"/>
    </g>
    <path class="cls-6" d="M383.50389,341.89207c-.3746,5.037-.98227,9.98263-1.70629,14.97692-1.09915,7.582-5.81683,14.31372-10.61885,20.10694-1.01951,1.22994.73967,3.00807,1.76776,1.76777,4.5759-5.52041,9.12413-11.82666,10.97276-18.87636,1.49506-5.70138,1.65-12.13161,2.08462-17.97527.11936-1.60491-2.3812-1.59729-2.5,0Z" transform="translate(-0.03263 -0.1671)"/>
    <path class="cls-3" d="M330.63681,291.24141s19.65492,33.07287,29.65715,33.07287" transform="translate(-0.03263 -0.1671)"/>
    <path class="cls-6" d="M332.86849,291.24141c47.53747,1.04,53.99052,48.67328,53.99052,48.67328l-2.93076,6.08416" transform="translate(-0.03263 -0.1671)"/>
    <path class="cls-6" d="M328.38914,291.24141c-47.53747,1.04-53.99052,48.67328-53.99052,48.67328l2.93076,6.08416" transform="translate(-0.03263 -0.1671)"/>
    <path class="cls-6" d="M382.146,339.37016" transform="translate(-0.03263 -0.1671)"/>
    <path class="cls-2" d="M347.9372,394.3107" transform="translate(-0.03263 -0.1671)"/>
  </g>
  <g id="Layer_16" data-name="Layer 16" >
    <g>
      <line class="cls-13" x1="284.56542" y1="123.92993" x2="284.56542" y2="167.02934"/>
      <line class="cls-13" x1="311.19681" y1="123.92993" x2="319.21486" y2="145.47963"/>
      <line class="cls-13" x1="319.21486" y1="145.47963" x2="311.19681" y2="167.02934"/>
      <text class="cls-14" transform="translate(290.7394 154.52736) scale(1.01257 1)">0</text>
    </g>
  </g>
  <g id="Layer_18" data-name="Layer 18" >
    <text class="cls-15" transform="matrix(0.79816, 0, -0.26605, 0.96396, 334.87658, 258.00446)">θ</text>
  </g>
  <g id="Layer_19" data-name="Layer 19">
    <g>
      <line class="cls-13" x1="435.66505" y1="196.20206" x2="435.66505" y2="237.02126"/>
      <line class="cls-13" x1="473.00746" y1="196.20206" x2="480.52967" y2="216.61166"/>
      <line class="cls-13" x1="480.52967" y1="216.61166" x2="473.00746" y2="237.02126"/>
      <text class="cls-16" transform="translate(442.0187 225.18068)">Ψ</text>
    </g>
  </g>
</svg>
