<svg xmlns="http://www.w3.org/2000/svg" viewBox="0 0 667.5 769.91"><defs><style>.cls-1{fill:#100f0f;}.cls-2{fill:#f7f8f8;}.cls-3{fill:#f7ec13;}.cls-10,.cls-4,.cls-6,.cls-8{fill:none;}.cls-5{fill:#2b2626;opacity:0.15;}.cls-6,.cls-8,.cls-9{stroke:#231f20;}.cls-10,.cls-6,.cls-8,.cls-9{stroke-miterlimit:10;}.cls-6{stroke-width:3px;}.cls-7,.cls-9{fill:#231f20;}.cls-10{stroke:#000;stroke-linecap:square;stroke-width:0.99px;}.cls-11,.cls-13{font-size:19.9px;}.cls-11{font-family:TimesNewRomanPSMT, Times New Roman;}.cls-12{font-size:20.19px;}.cls-12,.cls-13{font-family:SymbolMT, Symbol;}</style></defs><title>Angel</title><g id="Layer_11" data-name="Layer 11"><path class="cls-1" d="M231.94,599.86" transform="translate(-189.68 -0.7)"/></g><g id="Layer_14" data-name="Layer 14"><polygon class="cls-2" points="333.91 0 0.02 192.21 0 573.01 333.68 769.91 667.39 572.49 667.5 192.21 333.91 0"/></g><g id="Layer_12" data-name="Layer 12"><polygon class="cls-3" points="330.77 55.42 44.95 219.96 44.94 545.94 330.57 714.5 616.25 545.49 616.34 219.96 330.77 55.42"/></g><g id="Layer_13" data-name="Layer 13"><path class="cls-4" d="M810.23,548" transform="translate(-189.68 -0.7)"/><path class="cls-5" d="M491,403.6a79.12,79.12,0,0,1,2.93-8.77c.46-1.3.93-2.61,1.27-3.95.3-1.18.3,0,.09-1.62a5.82,5.82,0,0,1,.77-3.64L229.77,221l2.17,326.68,260.25-133.3A15.91,15.91,0,0,1,491,403.6Z" transform="translate(-189.68 -0.7)"/><path class="cls-5" d="M536.6,391.73a12.3,12.3,0,0,1,.54,2.38,49.6,49.6,0,0,1,.08,14L810.23,548,812.4,221.3Z" transform="translate(-189.68 -0.7)"/></g><g id="Layer_9" data-name="Layer 9"><line class="cls-6" x1="329.11" y1="207.25" x2="375.93" y2="172.78"/><polygon class="cls-7" points="376.14 178.58 387.7 164.12 370.45 170.86 376.14 178.58"/><line class="cls-8" x1="329.36" y1="207.52" x2="329.36" y2="125.95"/><polygon class="cls-7" points="334.35 127.41 329.36 118.78 324.38 127.41 334.35 127.41"/><path class="cls-8" d="M519.17,195.5" transform="translate(-189.68 -0.7)"/><path class="cls-8" d="M519,188.74s14.94-2.68,11.75,11" transform="translate(-189.68 -0.7)"/></g><g id="Layer_3" data-name="Layer 3"><path class="cls-9" d="M452.85,455.8c-1.67,24.57-16.06,72.72-18.25,78.39-.21.55-.4,1.1-.58,1.66-.93,3-4.49,13.72-8.63,13.49-2.75-.16-5.95-5.27-9.19-21-.12-.57-.77-.53-.75.08.49,16.69-11.4,82.17-13.81,3,0-.57-.6-.58-.65,0-1.26,15.49-6.65,64.17-24,54.62a1.7,1.7,0,0,1-.58-1.84c.92-3.57,3.26-14.91,3.21-37.12,0-.58-.54-.75-.69-.21-2.86,10.27-14.53,48.17-28.54,38.1a1.88,1.88,0,0,1-.62-1.58,39.92,39.92,0,0,1,1-6.38c.59-2.26,20.16-75.1,23.82-154.64S392.36,280.67,409.8,276s42,89.87,42,89.87" transform="translate(-189.68 -0.7)"/><path class="cls-9" d="M583.5,455.8c1.67,24.57,16.06,72.72,18.25,78.39.21.55.4,1.1.58,1.66.93,3,4.49,13.72,8.63,13.49,2.75-.16,5.95-5.27,9.19-21,.12-.57.77-.53.75.08-.49,16.69,11.4,82.17,13.81,3,0-.57.6-.58.65,0,1.26,15.49,6.65,64.17,24,54.62a1.7,1.7,0,0,0,.58-1.84c-.92-3.57-3.26-14.91-3.21-37.12,0-.58.54-.75.69-.21C660.28,557.18,672,595.08,686,585a1.88,1.88,0,0,0,.62-1.58,39.92,39.92,0,0,0-1-6.38c-.59-2.26-20.16-75.1-23.82-154.64S644,280.67,626.55,276s-42,89.87-42,89.87" transform="translate(-189.68 -0.7)"/><path class="cls-8" d="M625.38,484" transform="translate(-189.68 -0.7)"/><path class="cls-8" d="M582.73,365" transform="translate(-189.68 -0.7)"/><path class="cls-8" d="M547.77,346.46" transform="translate(-189.68 -0.7)"/><path class="cls-8" d="M452.16,365" transform="translate(-189.68 -0.7)"/><path class="cls-8" d="M409.51,484" transform="translate(-189.68 -0.7)"/><path class="cls-8" d="M487.13,346.46" transform="translate(-189.68 -0.7)"/><line class="cls-8" x1="297.45" y1="335.29" x2="297.45" y2="345.76"/><path class="cls-8" d="M517.16,343.65" transform="translate(-189.68 -0.7)"/><path class="cls-8" d="M495.38,242.73" transform="translate(-189.68 -0.7)"/><path class="cls-8" d="M454.79,279.5" transform="translate(-189.68 -0.7)"/><path class="cls-8" d="M479.21,207.82" transform="translate(-189.68 -0.7)"/><path class="cls-8" d="M494,190.27" transform="translate(-189.68 -0.7)"/><path class="cls-8" d="M501.43,210.63" transform="translate(-189.68 -0.7)"/><path class="cls-8" d="M491.47,189.37" transform="translate(-189.68 -0.7)"/><path class="cls-9" d="M455.84,265.24c6.09-29.17,31.23-51,61.32-51,31.75,0,58,24.35,62.15,55.94a68,68,0,0,1,.12,16.6c.06.79-4.93,2.06-9.71-2.58a99.24,99.24,0,0,1-13.34-16.72c-5.83-9.44-4.32-6.63-18-8.62-11.87-1.72-20.29-21.89-20.29-21.89l-.29-.69-.29.69s-8.42,20.17-20.3,21.89-14,2.11-18,8.62-8.42,14.55-13,18.19-10.91,1-10.91,1l-.43-.18a68.33,68.33,0,0,1-.41-7.48,67.34,67.34,0,0,1,.68-9.59C455.32,268,455.56,266.59,455.84,265.24Z" transform="translate(-189.68 -0.7)"/><path class="cls-8" d="M496.57,278.52s-9.83,10.6-20.42,0" transform="translate(-189.68 -0.7)"/><path class="cls-8" d="M557.34,278.52s-9.83,10.6-20.43,0" transform="translate(-189.68 -0.7)"/><path class="cls-8" d="M507.55,306.63s9.67,13.2,18.19,0" transform="translate(-189.68 -0.7)"/><path class="cls-8" d="M604.3,533.23" transform="translate(-189.68 -0.7)"/><path class="cls-8" d="M410.53,490" transform="translate(-189.68 -0.7)"/><path class="cls-8" d="M440.91,514" transform="translate(-189.68 -0.7)"/><path class="cls-8" d="M538.66,402.52" transform="translate(-189.68 -0.7)"/><path class="cls-8" d="M448.93,463.22" transform="translate(-189.68 -0.7)"/><path class="cls-8" d="M475.7,465.18" transform="translate(-189.68 -0.7)"/><path class="cls-8" d="M500.05,442.75v1.62s-3.72,19-28.43,20.92a20,20,0,0,1-9.3-1.3" transform="translate(-189.68 -0.7)"/><path class="cls-8" d="M549.16,346.46" transform="translate(-189.68 -0.7)"/><line class="cls-8" x1="359.48" y1="334.04" x2="359.48" y2="345.76"/><path class="cls-8" d="M575.13,463.48c24.07-11.84,14.57-75.4,14.57-75.4-4.66-48.26-40.54-41.62-40.54-41.62-5.22,6.81-26.37,8-31,8.14-4.64-.17-25.79-1.33-31-8.14,0,0-23.14-4.28-34.67,19-2.82,5.72-4.95,13.09-5.87,22.6,0,0-9.8,65.56,15.73,75.91-4.26,14.16-40.66,135.46-39.62,143.25,1.11,8.27,19.15,32.53,55.78,18.06,0,0,20.39,10.59,39,1.55,18.57,9,39-1.55,39-1.55,36.63,14.47,54.67-9.79,55.78-18.06C613.23,599.41,578.78,476.46,575.13,463.48ZM517.67,434c-8,11.79-17.62,8.83-17.62,8.83V423.09c4,1,3.92-4.2,3.92-4.2s.07-10.78,0-16.45a20.94,20.94,0,0,1,2-9.47c4.11-8.91,11.77-9.86,11.77-9.86Zm18.57,8.83s-9.62,3-17.62-8.83l-.09-50.86s7.66.95,11.77,9.86a20.86,20.86,0,0,1,2,9.47c-.06,5.67,0,16.45,0,16.45s-.1,5.16,3.93,4.2Z" transform="translate(-189.68 -0.7)"/><path class="cls-8" d="M536.24,442.75v1.62s3.72,19,28.43,20.92a19.79,19.79,0,0,0,10.46-1.81" transform="translate(-189.68 -0.7)"/><path class="cls-8" d="M517.77,191.67" transform="translate(-189.68 -0.7)"/><path class="cls-9" d="M575.13,463.48c24.07-11.84,14.57-75.4,14.57-75.4-4.66-48.26-40.54-41.62-40.54-41.62-5.22,6.81-26.37,8-31,8.14-4.64-.17-25.79-1.33-31-8.14,0,0-23.14-4.28-34.67,19-2.82,5.72-4.95,13.09-5.87,22.6,0,0-9.8,65.56,15.73,75.91-4.26,14.16-40.66,135.46-39.62,143.25,1.11,8.27,19.15,32.53,55.78,18.06,0,0,20.39,10.59,39,1.55,18.57,9,39-1.55,39-1.55,36.63,14.47,54.67-9.79,55.78-18.06C613.23,599.41,578.78,476.46,575.13,463.48ZM517.67,434c-8,11.79-17.62,8.83-17.62,8.83V423.09c4,1,3.92-4.2,3.92-4.2s.07-10.78,0-16.45a20.94,20.94,0,0,1,2-9.47c4.11-8.91,11.77-9.86,11.77-9.86Zm18.57,8.83s-9.62,3-17.62-8.83l-.09-50.86s7.66.95,11.77,9.86a20.86,20.86,0,0,1,2,9.47c-.06,5.67,0,16.45,0,16.45s-.1,5.16,3.93,4.2Z" transform="translate(-189.68 -0.7)"/><path class="cls-7" d="M454.26,282.62a1,1,0,0,0,0-2,1,1,0,0,0,0,2Z" transform="translate(-189.68 -0.7)"/><path class="cls-7" d="M582.75,277.38a1,1,0,0,0,0-2,1,1,0,0,0,0,2Z" transform="translate(-189.68 -0.7)"/></g><g id="Layer_10" data-name="Layer 10"><path class="cls-8" d="M517.16,343.65c32.07,0,58.51-24.83,62.27-56.88" transform="translate(-189.68 -0.7)"/><path class="cls-8" d="M454.89,286.75c3.75,32.06,30.2,56.9,62.27,56.9" transform="translate(-189.68 -0.7)"/><path class="cls-7" d="M577.84,275.91a1.25,1.25,0,0,0,0-2.5,1.25,1.25,0,0,0,0,2.5Z" transform="translate(-189.68 -0.7)"/><path class="cls-7" d="M583.6,274.08c2.49,1.87,3.65,5,4.48,8,2.09,7.43,3,15.48.55,22.8a31,31,0,0,1-3.55,7.16,16.64,16.64,0,0,1-2.5,3.11,18.1,18.1,0,0,1-4.84,3c-3.44,1.61-7.17,2.92-11,2.69" transform="translate(-189.68 -0.7)"/><path class="cls-7" d="M582.72,275c6.68,6.06,7.37,20.69,5,28.73-2.89,9.62-10.62,16-20.9,15.92a1.25,1.25,0,0,0,0,2.5c10.69.05,19.18-6.28,22.78-16.15a34.85,34.85,0,0,0,1.26-17.23c-.85-5.49-2.05-11.65-6.33-15.53-1.19-1.08-3,.68-1.77,1.76Z" transform="translate(-189.68 -0.7)"/><path class="cls-7" d="M451.29,274.08c-2.49,1.87-3.65,5-4.48,8-2.09,7.43-3,15.48-.55,22.8a31,31,0,0,0,3.55,7.16,16.64,16.64,0,0,0,2.5,3.11,18.1,18.1,0,0,0,4.84,3c3.44,1.61,7.17,2.92,11,2.69" transform="translate(-189.68 -0.7)"/><path class="cls-7" d="M450.4,273.2c-4.27,3.87-5.49,10.05-6.33,15.53A35,35,0,0,0,445.33,306c3.6,9.87,12.09,16.2,22.78,16.15a1.25,1.25,0,0,0,0-2.5c-10.24.05-18-6.31-20.9-15.92-2.42-8.07-1.71-22.69,5-28.73,1.19-1.08-.58-2.84-1.77-1.76Z" transform="translate(-189.68 -0.7)"/><path class="cls-7" d="M580.14,276.38a183.66,183.66,0,0,1-2.2,19.85c-1.57,8.67-7.05,16.65-12.49,23.41-1,1.24.76,3,1.76,1.77,5.35-6.63,10.32-14,12.72-22.27,2.07-7.14,2.18-15.38,2.71-22.76.12-1.61-2.38-1.6-2.5,0Z" transform="translate(-189.68 -0.7)"/></g><g id="Layer_7" data-name="Layer 7"><path class="cls-4" d="M517.16,214.2s23.33,40.6,35.2,40.6" transform="translate(-189.68 -0.7)"/><ellipse class="cls-6" cx="328.83" cy="155.27" rx="69.32" ry="15.7"/><polygon class="cls-7" points="282.89 173.3 294.03 168.95 284.69 161.47 282.89 173.3"/></g><g id="Layer_5" data-name="Layer 5"><path class="cls-7" d="M519.81,214.2c56.42,1.28,64.08,59.75,64.08,59.75l-3.48,7.47" transform="translate(-189.68 -0.7)"/><path class="cls-7" d="M514.49,214.2C458.07,215.48,450.41,274,450.41,274l3.48,7.47" transform="translate(-189.68 -0.7)"/><path class="cls-7" d="M578.3,273.28" transform="translate(-189.68 -0.7)"/></g><g id="Layer_16" data-name="Layer 16"><line class="cls-10" x1="300.59" y1="109.73" x2="300.59" y2="133.42"/><line class="cls-10" x1="315.23" y1="109.73" x2="319.63" y2="121.58"/><line class="cls-10" x1="319.63" y1="121.58" x2="315.23" y2="133.42"/><text class="cls-11" transform="translate(303.98 126.55) scale(1.01 1)">0</text></g><g id="Layer_18" data-name="Layer 18"><text class="cls-12" transform="translate(340.06 189.98) scale(0.97 1)">θ</text></g><g id="Layer_19" data-name="Layer 19"><line class="cls-10" x1="388.37" y1="170.3" x2="388.37" y2="193.99"/><line class="cls-10" x1="410.04" y1="170.3" x2="414.41" y2="182.14"/><line class="cls-10" x1="414.41" y1="182.14" x2="410.04" y2="193.99"/><text class="cls-13" transform="translate(392.06 187.12)">Ψ</text></g></svg>